<svg id="Capa_1" data-name="Capa 1" xmlns="http://www.w3.org/2000/svg" viewBox="0 0 13.02 9.64"><path d="M2.45,9.64A7.27,7.27,0,0,1,.61,7.41,5.49,5.49,0,0,1,0,4.85,5.64,5.64,0,0,1,.69,2.11,6.67,6.67,0,0,1,1.48,1a8.5,8.5,0,0,1,1-1l.7.7A6.17,6.17,0,0,0,1.71,2.61a4.88,4.88,0,0,0-.5,2.15A5.17,5.17,0,0,0,1.71,7,6,6,0,0,0,3.18,8.9Z"/><path d="M6.55,7.52l0-.67a3.4,3.4,0,0,1-.34.32,2.59,2.59,0,0,1-.39.25,2.08,2.08,0,0,1-.46.16,2.38,2.38,0,0,1-.55.06,1.85,1.85,0,0,1-.69-.12,1.3,1.3,0,0,1-.5-.32,1.39,1.39,0,0,1-.3-.5,1.87,1.87,0,0,1-.11-.64,1.55,1.55,0,0,1,.16-.68,1.47,1.47,0,0,1,.47-.53,2.55,2.55,0,0,1,.78-.34A4.13,4.13,0,0,1,5.7,4.38h.67V4.07a1,1,0,0,0,0-.35.64.64,0,0,0-.18-.27.75.75,0,0,0-.32-.17,1.37,1.37,0,0,0-.49-.07,3.8,3.8,0,0,0-.89.11,4.35,4.35,0,0,0-.86.29v-1a6.78,6.78,0,0,1,.85-.24,5.47,5.47,0,0,1,1-.09,4,4,0,0,1,1,.1,2,2,0,0,1,.68.33,1.42,1.42,0,0,1,.39.54A2.2,2.2,0,0,1,7.6,4v3.5ZM6.37,5.26H5.62a2,2,0,0,0-.53.06,1,1,0,0,0-.35.16.76.76,0,0,0-.2.25A.72.72,0,0,0,4.48,6a.57.57,0,0,0,.2.48.84.84,0,0,0,.55.17,1,1,0,0,0,.53-.19,3.15,3.15,0,0,0,.61-.54Z"/><path d="M11.6.4,8.54,7.52h1.2L12.8.4Z"/><path d="M12,5.66a1,1,0,0,1,.39.08.94.94,0,0,1,.53.53,1,1,0,0,1,.07.39A1,1,0,0,1,13,7a1,1,0,0,1-.21.31,1,1,0,0,1-.32.21,1,1,0,0,1-.39.08,1,1,0,0,1-.38-.08,1,1,0,0,1-.31-.21,1.1,1.1,0,0,1-.2-.31,1,1,0,0,1-.08-.38,1,1,0,0,1,.08-.39,1.16,1.16,0,0,1,.2-.32,1,1,0,0,1,.31-.21A1,1,0,0,1,12,5.66Z"/></svg>